<svg width="131" height="32" viewBox="0 0 131 32" fill="none" xmlns="http://www.w3.org/2000/svg">
<path d="M6.22204 25.378C3.03606 23.311 1.53677 28.4785 2.17397 32C5.54736 31.0431 9.4455 27.4067 6.22204 25.378Z" fill="#3E82F1"/>
<path d="M5.92217 6.85167L5.80973 9.99043C5.77225 10.6794 5.6598 11.4067 5.43491 12.0574C5.2475 12.6316 4.83519 13.0909 4.27296 13.244L1.64921 14.0861C0.862089 14.3541 0.299857 15.0813 0.262375 15.9234L0 23.0813L3.37339 20.2105C3.78569 19.866 4.42289 19.866 4.83519 20.2488L4.87268 20.2871C5.06009 20.4785 5.21001 20.7847 5.21001 21.0526C5.21001 21.512 5.32246 21.9713 5.47239 22.3541C6.25951 23.3493 7.94621 24.4211 9.29557 24.7655C9.70787 24.7273 10.1202 24.6124 10.5325 24.4211C10.7949 24.3062 11.0947 24.3062 11.3571 24.3828H11.3946C11.9193 24.5742 12.2192 25.1483 12.0692 25.6842L11.0197 30.0478L17.1293 26.6794C17.8415 26.2584 18.2538 25.4545 18.1413 24.6124L17.729 21.8565C17.6541 21.2823 17.8415 20.6699 18.2538 20.2488C18.7411 19.7512 19.3033 19.3301 19.903 18.9856L22.6017 17.4928L21.7021 0L5.92217 6.85167ZM18.966 17.1866C17.4667 18.0287 16.2298 19.2153 15.3302 20.7081L14.693 21.7799C14.2057 22.5837 13.2687 22.9282 12.4066 22.622C11.0947 22.1627 9.8578 21.5502 8.69585 20.7464C7.72132 20.0957 6.82175 19.3684 6.03462 18.5646C5.39743 17.9139 5.28498 16.8804 5.77225 16.1148L6.40944 15.0431C7.30901 13.5502 7.83376 11.866 7.87124 10.1435L7.94621 8.30622L18.2163 3.78947L14.1682 10.4115C13.0438 10.1818 11.8443 10.6794 11.2072 11.7129C10.3825 13.0909 10.7948 14.89 12.1067 15.7321C13.4561 16.5742 15.2177 16.1531 16.0423 14.8134C16.6795 13.7416 16.5671 12.4402 15.8924 11.5215L19.9405 4.89952L20.5402 16.3062L18.966 17.1866Z" fill="#3E82F1"/>
<path d="M39.0189 15.2344C38.3817 15.0048 37.782 14.7751 37.1448 14.622C36.5076 14.4689 35.9828 14.2775 35.5705 14.0861C35.1207 13.8947 34.9333 13.5885 34.9333 13.2823C34.9333 12.9761 35.0833 12.7081 35.3456 12.5167C35.608 12.3254 35.9454 12.2488 36.3577 12.2488C37.2947 12.2488 37.9319 12.6699 38.3442 13.5502L41.0429 12.0574C40.5557 11.2153 39.9185 10.5263 39.0939 10.067C38.2692 9.60765 37.3697 9.37799 36.3577 9.37799C35.0083 9.37799 33.9213 9.72248 33.0217 10.4498C32.1222 11.177 31.6724 12.134 31.6724 13.3971C31.6724 14.201 31.8973 14.8899 32.3096 15.4641C32.7594 16 33.2841 16.421 33.8838 16.6507C34.521 16.9187 35.1207 17.11 35.7579 17.2632C36.3951 17.4163 36.9199 17.6077 37.3322 17.8373C37.782 18.0287 37.9694 18.3349 37.9694 18.6411C37.9694 19.3684 37.4072 19.7129 36.2827 19.7129C35.0458 19.7129 34.2212 19.177 33.8838 18.067L31.1102 19.6364C32.0472 21.6268 33.7714 22.622 36.2827 22.622C37.707 22.622 38.869 22.2775 39.806 21.5885C40.7431 20.8995 41.2303 19.9043 41.2303 18.6029C41.2303 17.7608 41.0054 17.0335 40.5931 16.4593C40.1808 15.8852 39.6561 15.5024 39.0189 15.2344Z" fill="#3E82F1"/>
<path d="M47.19 6.16269L44.004 7.1579V9.68422H41.8675V12.823H44.004V18.067C44.004 19.7895 44.4538 20.9761 45.3534 21.6651C46.2529 22.3541 47.7897 22.5455 49.9637 22.2775V19.3302C49.364 19.3684 48.8392 19.3684 48.4269 19.3302C48.0146 19.2919 47.7147 19.177 47.4898 18.9857C47.2649 18.7943 47.1525 18.4498 47.1525 18.0287V12.823H49.9262V9.68422H47.1525V6.16269H47.19Z" fill="#3E82F1"/>
<path d="M57.7225 9.3397C55.8858 9.3397 54.3491 9.99042 53.1122 11.2536C51.8378 12.555 51.2381 14.1244 51.2381 15.9617C51.2381 17.8373 51.8753 19.4067 53.1122 20.6698C54.3866 21.9713 55.9233 22.5837 57.7225 22.5837C59.5591 22.5837 61.0958 21.933 62.3702 20.6698C63.6446 19.3684 64.2818 17.799 64.2818 15.9617C64.2818 14.0861 63.6446 12.5167 62.3702 11.2536C61.0958 9.99042 59.5591 9.3397 57.7225 9.3397ZM60.1213 18.488C59.4841 19.1387 58.697 19.4832 57.7225 19.4832C56.7479 19.4832 55.9608 19.1387 55.3611 18.488C54.7239 17.8373 54.424 16.9952 54.424 16C54.424 15.0048 54.7239 14.1627 55.3611 13.512C55.9983 12.8612 56.7854 12.5167 57.7225 12.5167C58.6595 12.5167 59.4841 12.8612 60.1213 13.512C60.7585 14.1627 61.0958 15.0048 61.0958 16C61.0958 16.9952 60.7585 17.8373 60.1213 18.488Z" fill="#3E82F1"/>
<path d="M69.0421 11.866V9.68422H65.8561V22.2775H69.0421V16.268C69.0421 15.0431 69.4169 14.201 70.204 13.6651C70.9536 13.1292 71.8532 12.9378 72.7903 13.0526V9.41628C71.9657 9.41628 71.1785 9.60767 70.5039 10.0287C69.8292 10.4498 69.3419 11.0622 69.0421 11.866Z" fill="#3E82F1"/>
<path d="M80.3991 18.1436L77.1757 9.68422H73.6898L78.7499 21.8565C78.4501 22.6986 78.0378 23.3493 77.5505 23.7321C77.0632 24.1148 76.3886 24.3062 75.5265 24.268V27.2919C77.1007 27.3684 78.4126 27.0239 79.4621 26.1818C80.5116 25.378 81.3737 24.0766 82.0109 22.2775L86.5087 9.68422H83.0979L80.3991 18.1436Z" fill="#3E82F1"/>
<path d="M92.8807 6.16269L89.6947 7.1579V9.68422H87.5582V12.823H89.6947V18.067C89.6947 19.7895 90.1445 20.9761 91.0441 21.6651C91.9436 22.3541 93.4804 22.5455 95.6544 22.2775V19.3302C95.0546 19.3684 94.5299 19.3684 94.1176 19.3302C93.7053 19.2919 93.4054 19.177 93.1805 18.9857C92.9557 18.7943 92.8432 18.4498 92.8432 18.0287V12.823H95.6169V9.68422H92.8432V6.16269H92.8807Z" fill="#3E82F1"/>
<path d="M100.677 11.866V9.68422H97.491V22.2775H100.677V16.268C100.677 15.0431 101.052 14.201 101.839 13.6651C102.589 13.1292 103.488 12.9378 104.425 13.0526V9.41628C103.601 9.41628 102.813 9.60767 102.139 10.0287C101.464 10.4498 100.977 11.0622 100.677 11.866Z" fill="#3E82F1"/>
<path d="M111.697 9.3397C109.785 9.3397 108.248 9.99042 107.011 11.2536C105.812 12.5167 105.175 14.0861 105.175 16C105.175 17.9139 105.775 19.4832 107.011 20.7464C108.248 22.0096 109.86 22.622 111.922 22.622C114.283 22.622 116.082 21.7416 117.282 19.9426L114.733 18.4498C114.096 19.2919 113.196 19.7129 111.959 19.7129C110.085 19.7129 108.923 18.9091 108.473 17.3397H117.769C117.844 16.8804 117.881 16.421 117.881 16C117.881 14.1244 117.282 12.555 116.12 11.2536C114.995 9.99042 113.496 9.3397 111.697 9.3397ZM108.436 14.8134C108.623 14.0096 108.998 13.3971 109.56 12.9378C110.122 12.4785 110.835 12.2871 111.697 12.2871C112.409 12.2871 113.046 12.4785 113.646 12.8995C114.208 13.3206 114.583 13.9713 114.77 14.8134H108.436Z" fill="#3E82F1"/>
<path d="M125.902 15.9234L130.85 9.72248H127.064L122.829 15.2727V4.66985H119.643V22.2775H122.829V16.5742L127.289 22.2775H131L125.902 15.9234Z" fill="#3E82F1"/>
<path d="M9.14562 9.14834C9.14562 9.14834 9.52044 12.0957 7.04662 16.2297C6.55935 17.0335 5.88467 18.1818 8.65835 20.7081C9.8203 21.4737 11.0947 22.1244 12.3691 22.5837C13.2312 22.89 14.1682 22.5455 14.6555 21.7416L15.2927 20.6699C16.1923 19.2153 17.4666 17.9904 18.9284 17.1483L20.5027 16.268L19.903 4.86126L15.8924 11.5215C16.5671 12.4402 16.6795 13.7799 16.0423 14.8134C15.2177 16.1914 13.4561 16.6125 12.1067 15.7321C10.7573 14.89 10.345 13.0909 11.2071 11.7129C11.8443 10.6412 13.0438 10.1818 14.1682 10.4115L18.1788 3.78949H18.1413L9.14562 9.14834Z" fill="#A9E1FF"/>
</svg>
